<svg id="visual" viewBox="0 0 1920 1080" width="1920" height="1080" xmlns="http://www.w3.org/2000/svg" xmlns:xlink="http://www.w3.org/1999/xlink" version="1.1"><rect x="0" y="0" width="1920" height="1080" fill="#ffffff"></rect><defs><linearGradient id="grad1_0" x1="43.8%" y1="0%" x2="100%" y2="100%"><stop offset="14.444444444444446%" stop-color="#fcdcac" stop-opacity="1"></stop><stop offset="85.55555555555554%" stop-color="#fcdcac" stop-opacity="1"></stop></linearGradient></defs><defs><linearGradient id="grad1_1" x1="43.8%" y1="0%" x2="100%" y2="100%"><stop offset="14.444444444444446%" stop-color="#fcdcac" stop-opacity="1"></stop><stop offset="85.55555555555554%" stop-color="#ffedd5" stop-opacity="1"></stop></linearGradient></defs><defs><linearGradient id="grad1_2" x1="43.8%" y1="0%" x2="100%" y2="100%"><stop offset="14.444444444444446%" stop-color="#ffffff" stop-opacity="1"></stop><stop offset="85.55555555555554%" stop-color="#ffedd5" stop-opacity="1"></stop></linearGradient></defs><defs><linearGradient id="grad2_0" x1="0%" y1="0%" x2="56.3%" y2="100%"><stop offset="14.444444444444446%" stop-color="#fcdcac" stop-opacity="1"></stop><stop offset="85.55555555555554%" stop-color="#fcdcac" stop-opacity="1"></stop></linearGradient></defs><defs><linearGradient id="grad2_1" x1="0%" y1="0%" x2="56.3%" y2="100%"><stop offset="14.444444444444446%" stop-color="#ffedd5" stop-opacity="1"></stop><stop offset="85.55555555555554%" stop-color="#fcdcac" stop-opacity="1"></stop></linearGradient></defs><defs><linearGradient id="grad2_2" x1="0%" y1="0%" x2="56.3%" y2="100%"><stop offset="14.444444444444446%" stop-color="#ffedd5" stop-opacity="1"></stop><stop offset="85.55555555555554%" stop-color="#ffffff" stop-opacity="1"></stop></linearGradient></defs><g transform="translate(1920, 0)"><path d="M0 648C-62.1 619.9 -124.2 591.9 -186 572.5C-247.8 553.2 -309.3 542.5 -374.4 515.3C-439.6 488.2 -508.5 444.4 -524.2 380.9C-540 317.3 -502.7 234 -514.5 167.2C-526.3 100.4 -587.2 50.2 -648 0L0 0Z" fill="#fff6ea"></path><path d="M0 432C-41.4 413.3 -82.8 394.6 -124 381.7C-165.2 368.8 -206.2 361.7 -249.6 343.6C-293.1 325.4 -339 296.3 -349.5 253.9C-360 211.6 -335.2 156 -343 111.5C-350.9 66.9 -391.4 33.5 -432 0L0 0Z" fill="#fee5c1"></path><path d="M0 216C-20.7 206.6 -41.4 197.3 -62 190.8C-82.6 184.4 -103.1 180.8 -124.8 171.8C-146.5 162.7 -169.5 148.1 -174.7 127C-180 105.8 -167.6 78 -171.5 55.7C-175.4 33.5 -195.7 16.7 -216 0L0 0Z" fill="#fcdcac"></path></g><g transform="translate(0, 1080)"><path d="M0 -648C61.3 -627.2 122.6 -606.3 192.5 -592.5C262.5 -578.7 341.1 -571.9 380.9 -524.2C420.6 -476.6 421.5 -388 452.2 -328.6C483 -269.1 543.5 -238.7 581.1 -188.8C618.7 -138.9 633.3 -69.4 648 0L0 0Z" fill="#fff6ea"></path><path d="M0 -432C40.9 -418.1 81.7 -404.2 128.3 -395C175 -385.8 227.4 -381.3 253.9 -349.5C280.4 -317.7 281 -258.7 301.5 -219C322 -179.4 362.3 -159.1 387.4 -125.9C412.5 -92.6 422.2 -46.3 432 0L0 0Z" fill="#fee5c1"></path><path d="M0 -216C20.4 -209.1 40.9 -202.1 64.2 -197.5C87.5 -192.9 113.7 -190.6 127 -174.7C140.2 -158.9 140.5 -129.3 150.7 -109.5C161 -89.7 181.2 -79.6 193.7 -62.9C206.2 -46.3 211.1 -23.1 216 0L0 0Z" fill="#fcdcac"></path></g></svg>