<svg id="visual" viewBox="0 0 1080 1920" width="1080" height="1920" xmlns="http://www.w3.org/2000/svg" xmlns:xlink="http://www.w3.org/1999/xlink" version="1.1"><rect width="1080" height="1920" fill="#fff3ec"></rect><g><g transform="translate(954 1765)"><path d="M72.1 -84.3C88.5 -72.3 93.2 -44.8 99.8 -16.2C106.5 12.3 115.1 41.9 103.2 57C91.4 72.1 59 72.7 31.8 78.9C4.6 85.1 -17.5 96.9 -41.7 96.1C-66 95.3 -92.4 82 -105.1 60.5C-117.7 39 -116.5 9.3 -111.6 -19.8C-106.6 -49 -97.9 -77.7 -78.7 -89.2C-59.5 -100.7 -29.7 -95.1 -0.9 -94C27.9 -92.9 55.8 -96.4 72.1 -84.3Z" fill="none" stroke="#fc9e51" stroke-width="3"></path></g><g transform="translate(502 602)"><path d="M30.1 -37.5C38.8 -28.5 45.7 -18.9 46.9 -8.8C48 1.3 43.4 11.9 37 19.7C30.5 27.5 22.1 32.6 13.2 35.4C4.4 38.3 -5 38.9 -13.5 36.2C-22.1 33.5 -29.8 27.6 -33.3 20C-36.8 12.4 -36.1 3.1 -35.6 -7.4C-35 -17.8 -34.7 -29.3 -28.7 -38.8C-22.8 -48.3 -11.4 -55.8 -0.4 -55.3C10.7 -54.9 21.3 -46.5 30.1 -37.5Z" fill="none" stroke="#fc9e51" stroke-width="3"></path></g><g transform="translate(923 1413)"><path d="M73.1 -82.1C95.2 -68.6 113.9 -46 116.1 -22.1C118.3 1.7 104.1 26.8 88 47.1C71.9 67.5 53.9 83 34 87.9C14.1 92.7 -7.7 86.8 -28.4 78.9C-49.2 71 -68.9 61.1 -80.4 44.7C-91.8 28.4 -94.9 5.5 -94.4 -20C-93.9 -45.5 -89.7 -73.7 -73.4 -88.2C-57 -102.7 -28.5 -103.5 -1.5 -101.7C25.5 -100 51 -95.5 73.1 -82.1Z" fill="none" stroke="#fc9e51" stroke-width="3"></path></g><g transform="translate(170 672)"><path d="M50.4 -56.4C67.8 -45.4 86.3 -31.9 89.3 -15.6C92.4 0.7 80 19.9 67 35C53.9 50.1 40 61.1 24.7 65.8C9.3 70.6 -7.7 69.2 -30.4 67.8C-53.2 66.4 -81.7 65 -95.8 50.5C-109.9 36 -109.7 8.3 -98.7 -11C-87.7 -30.4 -65.9 -41.5 -47.6 -52.3C-29.4 -63.2 -14.7 -73.8 0.9 -74.9C16.4 -75.9 32.9 -67.4 50.4 -56.4Z" stroke="#fc9e51" fill="none" stroke-width="3"></path></g><g transform="translate(223 60)"><path d="M35.7 -44.3C44.4 -35.4 48 -22.2 49.4 -9.5C50.8 3.3 49.8 15.8 45.9 30.1C41.9 44.4 34.9 60.6 23.2 65.8C11.4 71 -5.1 65.2 -22.5 59.8C-39.8 54.3 -58 49.2 -62.5 37.8C-66.9 26.5 -57.7 9 -50.2 -4.5C-42.6 -18.1 -36.9 -27.6 -28.9 -36.6C-20.8 -45.7 -10.4 -54.1 1.6 -56C13.6 -57.9 27.1 -53.2 35.7 -44.3Z" stroke="#fc9e51" fill="none" stroke-width="3"></path></g><g transform="translate(559 909)"><path d="M62 -74.6C76.9 -61.3 83.3 -38.6 84.8 -16.9C86.3 4.8 82.9 25.4 72.9 41.5C62.8 57.6 46.1 69.2 29 72C11.9 74.9 -5.5 69 -21.1 61.7C-36.7 54.4 -50.4 45.7 -67.1 31.6C-83.8 17.4 -103.5 -2.2 -106 -24C-108.4 -45.8 -93.6 -69.9 -73.1 -82.2C-52.6 -94.6 -26.3 -95.2 -1.4 -93.6C23.5 -91.9 47 -88 62 -74.6Z" stroke="#fc9e51" fill="none" stroke-width="3"></path></g><g transform="translate(337 1673)"><path d="M54.8 -69.3C65.6 -56.3 65.1 -33.8 67.5 -12.9C70 8 75.4 27.3 71.3 47.5C67.2 67.8 53.6 88.8 36.8 90.3C19.9 91.9 -0.2 73.9 -23 64.8C-45.7 55.8 -71.1 55.8 -77.9 44.7C-84.7 33.6 -72.9 11.4 -65.8 -8.6C-58.8 -28.7 -56.5 -46.6 -46.3 -59.7C-36.1 -72.8 -18.1 -81.1 2 -83.4C22 -85.8 44.1 -82.3 54.8 -69.3Z" stroke="#fc9e51" fill="none" stroke-width="3"></path></g><g transform="translate(694 1210)"><path d="M50.7 -61.8C62.9 -50.2 68.2 -31.6 72.7 -11.9C77.2 7.7 80.9 28.3 72.9 42.1C64.9 55.8 45.1 62.7 25.9 68.6C6.6 74.6 -12.1 79.6 -24.7 72.9C-37.4 66.2 -44 47.7 -49.8 31.6C-55.6 15.6 -60.7 2 -59.1 -11C-57.5 -24 -49.2 -36.3 -38.2 -48.1C-27.2 -59.9 -13.6 -71.2 2.8 -74.6C19.2 -77.9 38.5 -73.4 50.7 -61.8Z" stroke="#fc9e51" fill="none" stroke-width="3"></path></g><g transform="translate(226 1252)"><path d="M68.3 -75.3C87.3 -65.5 100.7 -42.8 105.2 -18.4C109.7 6 105.4 32.2 92.3 51.8C79.2 71.5 57.4 84.8 34.3 92.5C11.1 100.2 -13.5 102.4 -35 95.1C-56.6 87.7 -75.1 70.9 -82 51.1C-89 31.3 -84.4 8.6 -76.8 -10C-69.3 -28.6 -58.9 -43.2 -45.6 -54C-32.3 -64.9 -16.1 -72.1 4.3 -77.1C24.7 -82.2 49.3 -85.2 68.3 -75.3Z" stroke="#fc9e51" fill="none" stroke-width="3"></path></g><g transform="translate(654 1603)"><path d="M42.1 -48.8C51.1 -42.6 52.6 -26.1 52.3 -11.6C52 2.8 49.8 15.2 43.9 25.4C38 35.6 28.4 43.7 17.7 46.7C7 49.7 -4.8 47.7 -14 42.6C-23.2 37.5 -29.8 29.3 -38.3 19.6C-46.9 10 -57.3 -1 -56.9 -11.2C-56.6 -21.5 -45.3 -31 -34 -36.9C-22.7 -42.7 -11.3 -44.9 2.6 -48C16.5 -51.1 33 -55.1 42.1 -48.8Z" stroke="#fc9e51" fill="none" stroke-width="3"></path></g><g transform="translate(66 326)"><path d="M22.3 -29.6C27.9 -21.8 31 -13.9 32 -6C32.9 1.8 31.6 9.7 28.2 16.9C24.8 24.1 19.2 30.7 11.8 33.9C4.5 37.2 -4.5 37.2 -14.2 35.3C-23.9 33.3 -34.2 29.5 -39.4 22C-44.5 14.6 -44.5 3.4 -40.7 -5.3C-37 -14 -29.5 -20.1 -22.1 -27.7C-14.7 -35.2 -7.4 -44.2 0.5 -44.7C8.3 -45.3 16.6 -37.4 22.3 -29.6Z" stroke="#fc9e51" fill="none" stroke-width="3"></path></g><g transform="translate(546 41)"><path d="M65.4 -75.7C85.9 -60.8 104.3 -41.2 109.4 -18.4C114.6 4.5 106.4 30.6 92.3 51.5C78.1 72.4 57.9 88.1 34.5 98.1C11 108.1 -15.8 112.4 -33 101.5C-50.2 90.5 -57.9 64.2 -69.5 41.4C-81.1 18.7 -96.5 -0.5 -96.5 -19.9C-96.6 -39.3 -81.2 -58.9 -62.6 -74.1C-43.9 -89.4 -22 -100.3 0.3 -100.6C22.5 -100.9 45 -90.6 65.4 -75.7Z" stroke="#fc9e51" fill="none" stroke-width="3"></path></g><g transform="translate(916 430)"><path d="M50.8 -59.9C68.7 -45.5 88 -32.2 88.7 -17.3C89.3 -2.4 71.3 14.2 57.4 28.3C43.4 42.3 33.6 53.9 18.7 65.4C3.8 76.9 -16.3 88.3 -36.9 87C-57.5 85.7 -78.7 71.7 -85.7 52.8C-92.7 33.9 -85.4 10.1 -79 -11.8C-72.6 -33.7 -67.2 -53.6 -54.2 -68.9C-41.2 -84.2 -20.6 -94.8 -2.1 -92.3C16.4 -89.8 32.9 -74.3 50.8 -59.9Z" stroke="#fc9e51" fill="none" stroke-width="3"></path></g><g transform="translate(966 8)"><path d="M30.8 -35.6C40.5 -28.6 49.3 -19.4 50.3 -9.5C51.2 0.4 44.4 11 36.9 18.8C29.4 26.5 21.3 31.4 11.2 38.3C1.1 45.3 -11 54.4 -23 54C-35 53.6 -46.9 43.8 -54.1 31.3C-61.2 18.8 -63.6 3.6 -58.9 -8.2C-54.2 -20 -42.5 -28.3 -31.5 -35C-20.5 -41.8 -10.2 -46.9 0.2 -47.1C10.6 -47.3 21.1 -42.5 30.8 -35.6Z" stroke="#fc9e51" fill="none" stroke-width="3"></path></g><g transform="translate(633 337)"><path d="M54.3 -69.9C66.6 -54.5 70.1 -33.7 68.1 -16.3C66.1 1.2 58.6 15.3 50.4 28.6C42.1 41.9 33.2 54.4 20.6 60.8C8 67.2 -8.4 67.5 -25.4 63.9C-42.4 60.2 -60.1 52.6 -73.4 38.2C-86.7 23.8 -95.7 2.7 -94 -18.2C-92.3 -39.1 -79.9 -59.8 -62.5 -74.4C-45.1 -88.9 -22.5 -97.2 -0.7 -96.4C21 -95.5 42.1 -85.3 54.3 -69.9Z" stroke="#fc9e51" fill="none" stroke-width="3"></path></g><g transform="translate(914 910)"><path d="M38.6 -49.6C48.2 -38 52.8 -24.1 53.8 -10.6C54.8 2.8 52.2 15.7 45.9 26.3C39.5 37 29.6 45.4 17.2 51.9C4.8 58.5 -10 63.2 -26.9 62.2C-43.9 61.1 -63 54.3 -68.4 41.3C-73.8 28.3 -65.3 9.1 -59.1 -7.7C-52.9 -24.6 -49 -39.1 -39.5 -50.7C-30 -62.3 -15 -71 -0.2 -70.7C14.5 -70.4 29.1 -61.2 38.6 -49.6Z" stroke="#fc9e51" fill="none" stroke-width="3"></path></g><g transform="translate(97 1844)"><path d="M19.8 -25.9C25.1 -19 28.7 -12.4 30.1 -5.2C31.5 2 30.7 9.6 27.6 16.7C24.4 23.7 18.8 30.1 11.8 33C4.7 35.8 -3.9 35.2 -12.4 32.7C-20.8 30.2 -29 25.8 -34.9 18.7C-40.7 11.6 -44.2 1.6 -42.1 -7C-40.1 -15.6 -32.6 -22.7 -24.7 -29.1C-16.7 -35.5 -8.4 -41.2 -0.6 -40.4C7.2 -39.7 14.4 -32.7 19.8 -25.9Z" stroke="#fc9e51" fill="none" stroke-width="3"></path></g><g transform="translate(18 1541)"><path d="M34.3 -41.6C44.8 -32.2 53.7 -21.6 57.1 -9.1C60.5 3.5 58.3 18 52.4 32.2C46.5 46.4 36.8 60.4 23.8 65C10.7 69.7 -5.6 65 -16.5 56.3C-27.4 47.6 -32.9 34.9 -40.1 22.9C-47.2 11 -56 -0.2 -56 -11.6C-56.1 -23 -47.4 -34.5 -36.6 -43.9C-25.8 -53.3 -12.9 -60.5 -0.5 -59.9C12 -59.4 23.9 -51 34.3 -41.6Z" stroke="#fc9e51" fill="none" stroke-width="3"></path></g></g></svg>